<?xml version="1.0" encoding="UTF-8"?>
<svg version="1.1" xmlns="http://www.w3.org/2000/svg" width="1024" height="1024">
<path d="M0 0 C337.92 0 675.84 0 1024 0 C1024 337.92 1024 675.84 1024 1024 C686.08 1024 348.16 1024 0 1024 C0 686.08 0 348.16 0 0 Z " fill="#0E5BA3" transform="translate(0,0)"/>
<path d="M0 0 C0.13535156 0.99257813 0.27070313 1.98515625 0.41015625 3.0078125 C2.31243668 15.49636084 5.76663628 25.94115002 15 35 C15 35.66 15 36.32 15 37 C15.55945313 37.24878906 16.11890625 37.49757813 16.6953125 37.75390625 C19.38385714 39.2075431 21.51104112 40.99793136 23.875 42.9375 C36.77769999 52.89862021 52.53275271 58.96412444 67.41659546 65.35437012 C68.79771925 65.94809818 70.17700648 66.54611805 71.55435181 67.14855957 C73.49862423 67.99521651 75.45058613 68.82068355 77.40625 69.640625 C78.53353516 70.12047852 79.66082031 70.60033203 80.82226562 71.09472656 C86.97598233 72.84779829 91.92547414 70.41189455 97.57421875 67.97265625 C98.29168274 67.66820084 99.00914673 67.36374542 99.74835205 67.05006409 C102.06515745 66.06271551 104.3767746 65.06398861 106.6875 64.0625 C107.47456329 63.72297302 108.26162659 63.38344604 109.07254028 63.03363037 C143.40016135 49.05377008 143.40016135 49.05377008 166.9375 21.85546875 C168.96876371 16.39644753 169.96693804 10.71674151 171 5 C171.33032825 3.33273513 171.66246051 1.66581991 172 0 C198.47027357 4.58643354 236.0636498 11.22037199 253.87890625 33.33203125 C258.9804406 40.74462212 261.24895484 47.02214361 259.640625 56.0078125 C256.1487483 67.66313069 244.59851739 75.40983865 234.4765625 80.9609375 C176.62814744 111.6247253 98.66390584 114.39239555 35 107 C33.83210938 106.86577637 32.66421875 106.73155273 31.4609375 106.59326172 C-4.86243915 102.27747105 -54.89076437 95.94605399 -81 67 C-85.965132 59.95644066 -89.1958367 53.74707522 -88 45 C-85.84305542 38.95876517 -82.88208377 34.20086278 -78 30 C-77.48308594 29.48179687 -76.96617187 28.96359375 -76.43359375 28.4296875 C-59.32021944 11.94466602 -23.30666857 0 0 0 Z " fill="#FAFBF9" transform="translate(426,336)"/>
<path d="M0 0 C1.89886893 2.36857628 3.79619345 4.73534126 5.6484375 7.140625 C31.81937444 39.11416787 88.05854858 45.70910173 126.53125 49.72265625 C132.0161134 50.23921776 137.50150738 50.66013635 143 51 C143.6320636 51.04130035 144.2641272 51.08260071 144.91534424 51.12515259 C156.49056851 51.87568901 168.02621678 52.2021073 179.625 52.1875 C180.44905334 52.18722809 181.27310669 52.18695618 182.12213135 52.18667603 C195.84092814 52.16599675 209.36128535 51.54359523 223 50 C224.93486626 49.80309465 226.86976271 49.60648567 228.8046875 49.41015625 C267.17321258 45.28716023 317.19965832 35.6601735 344 5 C345.04575295 3.36165371 346.06927875 1.70632228 347 0 C347.33 0 347.66 0 348 0 C348.06983572 7.2763756 348.12298025 14.55267767 348.15543652 21.82932186 C348.17102226 25.20900844 348.19212856 28.58846394 348.22631836 31.96801758 C348.2628795 35.86285403 348.27976767 39.75736645 348.29296875 43.65234375 C348.30845261 44.8526976 348.32393646 46.05305145 348.33988953 47.28977966 C348.34206324 58.23067037 346.16754812 65.72582331 339 74 C338.50886719 74.58523438 338.01773437 75.17046875 337.51171875 75.7734375 C312.87517074 102.79416757 263.90787026 108.65370683 230 113 C228.85692383 113.15098145 227.71384766 113.30196289 226.53613281 113.45751953 C190.06692224 118.09496236 152.442882 117.66935327 116 113 C114.84612793 112.85546387 113.69225586 112.71092773 112.50341797 112.56201172 C78.3000415 108.14409598 28.91277703 100.30452098 6 71 C2.07080002 64.49072385 -0.13037955 58.93155629 -0.11352539 51.31347656 C-0.11344986 50.17259583 -0.11337433 49.03171509 -0.11329651 47.85626221 C-0.10813522 46.63010193 -0.10297394 45.40394165 -0.09765625 44.140625 C-0.0962413 42.88111023 -0.09482635 41.62159546 -0.09336853 40.32391357 C-0.08872073 36.98334881 -0.07974281 33.64285279 -0.06866455 30.30230713 C-0.05841598 26.8903462 -0.05386354 23.47837815 -0.04882812 20.06640625 C-0.03779963 13.3775852 -0.02106189 6.68879657 0 0 Z " fill="#FAFAF9" transform="translate(338,482)"/>
<path d="M0 0 C2.33429046 2.30701309 4.46527835 4.5686483 6.4375 7.1875 C14.80774027 16.95625922 27.49736974 22.75981743 39 28 C40.14597656 28.52335938 41.29195313 29.04671875 42.47265625 29.5859375 C77.27097321 44.41543447 118.08648006 50.13530096 155.64453125 50.16796875 C157.02577241 50.17119915 158.40701326 50.1745644 159.78825378 50.17805481 C162.66996041 50.18399464 165.55163731 50.18590037 168.43334961 50.18530273 C171.33315335 50.18522199 174.23279738 50.19209053 177.13256836 50.20581055 C200.84773844 50.31602447 224.17126857 49.45371224 247.5625 45.25 C248.30148529 45.11994568 249.04047058 44.98989136 249.80184937 44.855896 C283.40714434 38.91965687 323.57559011 29.99694289 346 2 C346.66 1.34 347.32 0.68 348 0 C348.10187788 7.79204064 348.17166589 15.58390788 348.21972656 23.37646484 C348.2397738 26.0243166 348.26701884 28.67212446 348.30175781 31.31982422 C348.35057744 35.13780588 348.37303881 38.95519936 348.390625 42.7734375 C348.41127014 43.94675629 348.43191528 45.12007507 348.45318604 46.32894897 C348.4564244 58.33821901 344.9934557 65.87305166 336.6875 74.46875 C305.37692692 103.95894092 249.9458944 111.36049899 208.76611328 113.82763672 C206.75813649 113.95275866 204.75135809 114.09760577 202.74560547 114.25439453 C191.99432181 115.06754127 181.27856322 115.24190504 170.5 115.25 C169.09102951 115.25151062 169.09102951 115.25151062 167.65359497 115.25305176 C150.59518466 115.24077653 133.92769938 114.2181453 117 112 C115.88463867 111.86078125 114.76927734 111.7215625 113.62011719 111.578125 C83.74462544 107.77658967 53.48752697 100.73945033 27 86 C25.47439453 85.15308594 25.47439453 85.15308594 23.91796875 84.2890625 C13.15739326 77.87786647 4.17434594 69.4487074 0.4546051 57.20477295 C-0.08536157 54.58600797 -0.11966011 52.17180781 -0.11352539 49.49707031 C-0.11344986 48.39623108 -0.11337433 47.29539185 -0.11329651 46.16119385 C-0.10813522 44.97878113 -0.10297394 43.79636841 -0.09765625 42.578125 C-0.0962413 41.36300232 -0.09482635 40.14787964 -0.09336853 38.89593506 C-0.08776988 35.01393169 -0.0752176 31.13198594 -0.0625 27.25 C-0.05748483 24.61849042 -0.05292195 21.98697993 -0.04882812 19.35546875 C-0.03780089 12.90362617 -0.02106408 6.4518172 0 0 Z " fill="#F9FAF9" transform="translate(338,560)"/>
<path d="M0 0 C2.33429046 2.30701309 4.46527835 4.5686483 6.4375 7.1875 C34.84215278 40.06973352 96.91224572 45.92985395 137 49 C149.2932119 49.8897598 161.55061247 50.24032544 173.875 50.25 C175.23179367 50.25151062 175.23179367 50.25151062 176.61599731 50.25305176 C234.37407981 50.21009908 305.10210012 43.95907137 348 1 C348.14001692 8.2243651 348.24612836 15.4484301 348.31087303 22.67388535 C348.34197516 26.03049967 348.38735967 29.38547368 348.45263672 32.74169922 C348.52603433 36.61450243 348.55959247 40.48599925 348.5859375 44.359375 C348.61690521 45.544245 348.64787292 46.72911499 348.67977905 47.94989014 C348.68375303 57.94894609 345.65161984 66.1255467 339 73.6875 C297.74070624 110.87515292 225.11447252 114.25715494 172.5625 114.1875 C171.64114258 114.18656342 170.71978516 114.18562683 169.77050781 114.18466187 C119.76824101 114.07501725 54.3364975 109.95608764 14 77 C13.4121875 76.57332031 12.824375 76.14664063 12.21875 75.70703125 C5.82038066 70.92457661 1.42514269 63.83322959 0 56 C-0.26853774 51.68707247 -0.2328222 47.38622487 -0.1953125 43.06640625 C-0.1924826 41.83333237 -0.18965271 40.60025848 -0.18673706 39.32981873 C-0.1755786 35.40727875 -0.15048151 31.4849705 -0.125 27.5625 C-0.11383396 24.89648772 -0.10583976 22.23047761 -0.09765625 19.56445312 C-0.07565341 13.04289023 -0.04221878 6.52146168 0 0 Z " fill="#FAFAF9" transform="translate(338,407)"/>
<path d="M0 0 C15.63936885 6.27830432 27.84112084 28.35953741 34.66796875 42.84375 C45.41821376 68.31647132 37.31123514 90.21625456 27.62890625 114.3984375 C23.26442713 125.3104018 19.68914324 135.88723374 17.98632812 147.5456543 C17.19664932 152.80335068 17.19664932 152.80335068 15 155 C12.87109375 155.23046875 12.87109375 155.23046875 10.4375 155.1875 C9.22900391 155.17783203 9.22900391 155.17783203 7.99609375 155.16796875 C6 155 6 155 5 154 C4.88777575 152.53285153 4.84325601 151.06044927 4.82641602 149.58911133 C4.81284561 148.64394653 4.79927521 147.69878174 4.78529358 146.72497559 C4.77493576 145.68780396 4.76457794 144.65063232 4.75390625 143.58203125 C4.72230473 141.36824115 4.6903913 139.15445548 4.65820312 136.94067383 C4.63512085 135.19290146 4.63512085 135.19290146 4.61157227 133.40982056 C4.29035385 109.86239339 3.7455739 86.41092029 1 63 C-0.2882818 68.91670256 -0.6055476 74.84255906 -1 80.875 C-1.04324402 81.53153564 -1.08648804 82.18807129 -1.13104248 82.86450195 C-2.66529919 106.86552107 -2.68540719 130.95931121 -3 155 C-4.78862824 155.05594475 -6.57775269 155.09620888 -8.36694336 155.12963867 C-9.36318222 155.15370285 -10.35942108 155.17776703 -11.385849 155.20256042 C-14 155 -14 155 -16.12890625 152.92578125 C-17.10639403 149.64264963 -17.60844885 146.60001925 -17.9375 143.1875 C-19.69520926 128.32043595 -24.16401992 115.49632313 -30.02709961 101.75488281 C-34.50238189 91.19590503 -37.56937505 81.72759738 -37.4375 70.1875 C-37.42847656 69.22900146 -37.41945313 68.27050293 -37.41015625 67.28295898 C-36.75543523 40.27799023 -18.28722304 18.28722304 0 0 Z " fill="#FCFCFB" transform="translate(511,154)"/>
<path d="M0 0 C56.76781003 0 56.76781003 0 66.5234375 9.48046875 C71.89844602 15.52346965 72.38631869 20.95719736 72.25390625 28.76953125 C71.75029171 35.1770578 69.60514628 40.39485372 65 45 C62.7209221 46.49810077 60.42731011 47.7396659 58 49 C58.65226563 49.27972656 59.30453125 49.55945313 59.9765625 49.84765625 C67.71007435 53.3950341 72.74535801 57.17350454 75.875 65.25 C78.58168603 74.73951234 77.51527479 84.57786336 72.78125 93.2265625 C66.17966701 103.0189106 57.45963419 104.35546903 46 107 C30.82 107 15.64 107 0 107 C0 71.69 0 36.38 0 0 Z " fill="#FAFBFA" transform="translate(551,719)"/>
<path d="M0 0 C7.69889782 5.92023172 13.0973849 13.25070671 15.31640625 22.78125 C16.78043272 35.51425085 15.99300647 47.35201108 8.50390625 58.09375 C2.04287391 65.99236203 -5.41152972 71.34691221 -15.74609375 72.53125 C-17.04546875 72.61375 -18.34484375 72.69625 -19.68359375 72.78125 C-19.79316406 71.98460937 -19.90273438 71.18796875 -20.015625 70.3671875 C-21.31181731 61.7048291 -22.80734234 55.67517978 -29.68359375 49.78125 C-35.2052951 47.10945903 -40.66382902 46.97913387 -46.68359375 47.78125 C-49.10566283 48.87251189 -51.04956347 50.08451814 -53.16015625 51.6875 C-54.68359375 52.78125 -54.68359375 52.78125 -56.68359375 52.78125 C-58.35561555 55.9445345 -59.60580511 59.1634418 -60.80859375 62.53125 C-61.42734375 64.26375 -62.04609375 65.99625 -62.68359375 67.78125 C-68.95359375 67.78125 -75.22359375 67.78125 -81.68359375 67.78125 C-83.22374209 48.06735129 -71.28015437 24.78706306 -58.88183594 10.10424805 C-43.54098651 -7.30961609 -20.14055906 -13.18996485 0 0 Z " fill="#FBFCFA" transform="translate(615.68359375,241.21875)"/>
<path d="M0 0 C8.2694907 7.42355115 12.53989906 17.75906716 13.23828125 28.75 C13.57663055 41.69871909 11.86580078 53.88808436 3 64 C-5.99111938 72.48746746 -16.74012607 74.58430477 -28.7421875 74.34375 C-37.14794319 73.88918007 -45.50078996 70.55307013 -51.578125 64.65625 C-61.42220112 53.18952397 -62.58669457 39.57472815 -62 25 C-61.03395796 15.72599646 -56.65936023 6.51137444 -50 0 C-35.4136979 -10.66415057 -14.50425113 -11.76353276 0 0 Z " fill="#F9FBFA" transform="translate(387,754)"/>
<path d="M0 0 C17.43370567 12.80197858 27.10966011 35.03097642 31.3671875 55.73828125 C31.6920992 59.21360262 31.64412466 62.24887306 31.3671875 65.73828125 C25.4271875 65.73828125 19.4871875 65.73828125 13.3671875 65.73828125 C12.8515625 64.04703125 12.3359375 62.35578125 11.8046875 60.61328125 C9.435238 54.1450998 6.46408729 51.01240783 0.5234375 47.71484375 C-5.57623841 44.98998853 -12.61925054 44.35129072 -18.97265625 46.546875 C-23.72586171 49.10493157 -26.04674857 52.24738049 -27.95703125 57.24609375 C-29.07459748 61.36752295 -29.45509607 65.48197267 -29.6328125 69.73828125 C-38.57016809 70.38827075 -45.61205651 67.26525937 -52.6328125 61.73828125 C-58.57153563 56.10054603 -62.23745191 50.57395232 -64.6328125 42.73828125 C-64.82359375 42.12597656 -65.014375 41.51367188 -65.2109375 40.8828125 C-67.3373313 30.07364403 -65.90301076 18.58751015 -60.0546875 9.20703125 C-44.93606115 -11.2235449 -21.0443866 -13.54774409 0 0 Z " fill="#FAFBFA" transform="translate(457.6328125,243.26171875)"/>
<path d="M0 0 C2.8828125 1.83984375 2.8828125 1.83984375 5 4 C5.3046875 6.55078125 5.3046875 6.55078125 4.875 9.3125 C4.73964844 10.27414062 4.60429687 11.23578125 4.46484375 12.2265625 C4.23474609 13.59941406 4.23474609 13.59941406 4 15 C3.81056665 16.39557227 3.62270225 17.79135994 3.4375 19.1875 C3.293125 20.115625 3.14875 21.04375 3 22 C-0.41437991 20.68771164 -3.63624609 19.19698288 -6.875 17.5 C-14.13150091 13.87174955 -20.86202805 11.94625324 -29 13 C-33.51378183 14.52462182 -36.33344794 16.0001719 -39 20 C-39.32767474 23.53888715 -39.25142898 26.24571305 -38.125 29.625 C-31.89852338 36.58400328 -21.41314618 38.65643361 -12.75244141 41.23779297 C-3.12676496 44.24034671 4.95471243 49.001192 10 58 C13.57828567 67.01334501 13.04102776 76.61448237 9.30859375 85.5 C4.16026735 95.33560864 -4.09072786 99.6595041 -14.3671875 103.140625 C-29.91082359 106.81761418 -44.13119148 102.75347859 -57.5390625 94.68359375 C-61.76326693 91.79370152 -61.76326693 91.79370152 -63 90 C-62.73067438 85.94630413 -61.02487914 82.39138466 -59.4375 78.6875 C-58.75494141 77.08455078 -58.75494141 77.08455078 -58.05859375 75.44921875 C-57.53458984 74.23685547 -57.53458984 74.23685547 -57 73 C-54.05836204 74.3881887 -51.47104274 76.0057878 -48.8125 77.875 C-47.21472257 78.92644063 -45.61062978 79.96835478 -44 81 C-43.35546875 81.4228125 -42.7109375 81.845625 -42.046875 82.28125 C-36.80339453 85.17135735 -31.67943917 85.41156257 -25.8125 85.5 C-25.0397876 85.51853027 -24.2670752 85.53706055 -23.47094727 85.55615234 C-18.20924401 85.49827531 -15.17085289 84.46501625 -11 81 C-8.68309509 77.37354013 -8.8808523 74.19749413 -9.22265625 70.0625 C-10.92961226 65.53349109 -14.26830786 63.33670789 -18.53125 61.375 C-19.84944762 60.90326597 -21.17267918 60.44541824 -22.5 60 C-23.92714101 59.48974462 -25.35422352 58.9793256 -26.78125 58.46875 C-28.18708796 57.97798475 -29.59332321 57.48835572 -31 57 C-42.44436159 52.98958269 -51.71804404 48.86943695 -58 38 C-61.37254308 28.80215523 -61.24112485 19.02951822 -57.1171875 10.11328125 C-53.17569387 2.65751882 -46.63481877 -1.33418494 -38.8046875 -4.1484375 C-25.95789692 -7.0237972 -11.72320918 -6.18724929 0 0 Z " fill="#F9FBFA" transform="translate(229,724)"/>
<path d="M0 0 C6.09115607 4.85700027 8.79518118 9.80602823 10.453125 17.40625 C11.20726108 24.60561105 11.151013 31.86290671 11.203125 39.09375 C11.23132705 41.06708302 11.26126029 43.04039209 11.29296875 45.01367188 C11.3663294 49.81115453 11.41621077 54.60835414 11.453125 59.40625 C13.763125 60.06625 16.073125 60.72625 18.453125 61.40625 C18.453125 66.02625 18.453125 70.64625 18.453125 75.40625 C13.7507588 76.1899777 9.56099884 76.62864519 4.828125 76.71875 C3.53648437 76.75613281 2.24484375 76.79351563 0.9140625 76.83203125 C-2.546875 76.40625 -2.546875 76.40625 -4.9453125 74.63671875 C-6.50054265 72.47077628 -7.17318783 71.02206018 -7.546875 68.40625 C-7.959375 68.80457031 -8.371875 69.20289063 -8.796875 69.61328125 C-15.84217387 76.07671391 -21.99729431 78.01575593 -31.578125 77.76171875 C-37.95275441 76.99844075 -44.12180184 74.08418448 -48.546875 69.40625 C-53.50385981 62.19905498 -53.62096942 53.85890605 -52.546875 45.40625 C-50.58846396 39.93103275 -46.57265709 35.34407669 -41.546875 32.40625 C-33.17177504 28.75524913 -25.79850648 27.24497908 -16.734375 27.34375 C-15.55198242 27.35051758 -15.55198242 27.35051758 -14.34570312 27.35742188 C-12.41272739 27.36913688 -10.47979107 27.38707002 -8.546875 27.40625 C-8.74978173 25.81933769 -8.9854475 24.23659708 -9.234375 22.65625 C-9.42580078 21.33367188 -9.42580078 21.33367188 -9.62109375 19.984375 C-10.87265583 16.49901226 -12.40915788 15.32569148 -15.546875 13.40625 C-25.09505647 11.43253195 -32.46469024 14.58365711 -40.546875 19.40625 C-41.206875 19.73625 -41.866875 20.06625 -42.546875 20.40625 C-45.516875 16.77625 -48.486875 13.14625 -51.546875 9.40625 C-40.1873792 -4.79311975 -15.80897016 -9.89272979 0 0 Z " fill="#F9FBFA" transform="translate(691.546875,750.59375)"/>
<path d="M0 0 C8.43045843 6.34747371 12.99837626 15.16484716 14.7265625 25.46875 C15.88832487 36.22335025 15.88832487 36.22335025 14 40 C-2.83 40 -19.66 40 -37 40 C-34.19726037 51.84165927 -34.19726037 51.84165927 -25.75 58.875 C-18.35048837 61.09485349 -11.8736452 60.56205095 -5 57 C-2.55505541 55.4382103 -0.30218279 53.77459923 2 52 C5.3 55.3 8.6 58.6 12 62 C8.33700772 69.32598455 2.85758581 72.42953096 -4.66796875 75.23828125 C-15.67076877 78.83216065 -28.25702312 78.05027585 -38.625 72.875 C-47.23886289 67.73374152 -51.80315309 60.16799764 -54.68359375 50.76953125 C-57.84522069 37.75235 -56.97295025 24.38681142 -50.6796875 12.5078125 C-45.93585815 4.80881077 -39.57856788 -1.28662213 -30.9609375 -4.3359375 C-20.17689032 -6.75452328 -9.52635066 -5.83506725 0 0 Z " fill="#F8FAFA" transform="translate(841,751)"/>
<path d="M0 0 C3.14581423 -0.02888514 6.29159469 -0.04675923 9.4375 -0.0625 C10.33533203 -0.07087891 11.23316406 -0.07925781 12.15820312 -0.08789062 C13.01220703 -0.09111328 13.86621094 -0.09433594 14.74609375 -0.09765625 C15.93223267 -0.10551147 15.93223267 -0.10551147 17.14233398 -0.11352539 C19 0 19 0 20 1 C20.10738122 2.69174682 20.14624239 4.3878953 20.15771484 6.08300781 C20.16797699 7.16793518 20.17823914 8.25286255 20.18881226 9.3706665 C20.19611359 10.55287781 20.20341492 11.73508911 20.2109375 12.953125 C20.23901047 15.4336003 20.26767496 17.91406896 20.296875 20.39453125 C20.33813679 24.32275173 20.3750057 28.25084889 20.40136719 32.17919922 C20.42895513 35.95827168 20.474836 39.73677223 20.5234375 43.515625 C20.52669037 44.68973938 20.52994324 45.86385376 20.53329468 47.07354736 C20.55814438 48.71985138 20.55814438 48.71985138 20.58349609 50.39941406 C20.59562637 51.84383881 20.59562637 51.84383881 20.60800171 53.31744385 C21.07684094 56.52584444 22.05975489 58.41630899 24 61 C29.26744772 62.75581591 33.57788886 62.47403705 38.75 60.75 C42.48260226 58.74013724 45.08855082 56.82289835 47 53 C47.11902812 51.30536742 47.17714687 49.60628878 47.20532227 47.90771484 C47.22526749 46.84676605 47.24521271 45.78581726 47.26576233 44.69271851 C47.28247482 43.54373077 47.29918732 42.39474304 47.31640625 41.2109375 C47.33718735 40.03737701 47.35796844 38.86381653 47.37937927 37.6546936 C47.44491983 33.89485696 47.50378076 30.13494878 47.5625 26.375 C47.60568092 23.83072168 47.64929507 21.28645067 47.69335938 18.7421875 C47.80060586 12.49486553 47.90186061 6.2474714 48 0 C54.27 0 60.54 0 67 0 C67 25.74 67 51.48 67 78 C61.06 78 55.12 78 49 78 C48.505 74.04 48.505 74.04 48 70 C47.29037109 70.70576172 47.29037109 70.70576172 46.56640625 71.42578125 C40.07646089 77.53619765 34.42732255 80.06372655 25.5 80.375 C17.54797593 80.10845171 11.59754983 78.00953464 5.5078125 72.890625 C-0.11892075 65.8353429 0.52675271 57.93578343 0.48828125 49.31640625 C0.47141582 47.89149954 0.45326308 46.46660753 0.43388367 45.04173279 C0.38657933 41.31166176 0.35664413 37.58165039 0.33044434 33.85137939 C0.30053936 30.0368675 0.25404346 26.22256078 0.20898438 22.40820312 C0.12317428 14.93890433 0.05573072 7.46959026 0 0 Z " fill="#F9FBFA" transform="translate(412,748)"/>
<path d="M0 0 C1.6796875 1.46484375 1.6796875 1.46484375 2.6796875 4.46484375 C1.24609375 7.3828125 1.24609375 7.3828125 -0.7578125 10.65234375 C-1.41652344 11.73902344 -2.07523438 12.82570313 -2.75390625 13.9453125 C-3.27082031 14.77675781 -3.78773438 15.60820313 -4.3203125 16.46484375 C-5.05636719 15.98273437 -5.79242187 15.500625 -6.55078125 15.00390625 C-8.01451172 14.05644531 -8.01451172 14.05644531 -9.5078125 13.08984375 C-10.47074219 12.46335937 -11.43367187 11.836875 -12.42578125 11.19140625 C-18.4688243 7.58678408 -23.35737913 6.7445403 -30.3203125 7.46484375 C-33.41386908 8.36664711 -33.41386908 8.36664711 -35.3203125 10.46484375 C-36.21238429 13.56055445 -36.21238429 13.56055445 -36.3203125 16.46484375 C-30.5006997 20.96225596 -24.34172785 22.28976247 -17.28320312 24 C-9.63110351 26.00293569 -1.99995039 29.04518791 2.1796875 36.15234375 C5.47849916 43.4372195 5.5665461 49.45610215 3.1796875 57.08984375 C0.39021633 63.99113057 -3.4917906 67.76327846 -10.2734375 70.77734375 C-22.68340433 75.09385395 -34.23251118 74.56511605 -46.3203125 69.46484375 C-50.8492233 66.99745707 -54.43922014 64.78648229 -57.3203125 60.46484375 C-54.6803125 56.17484375 -52.0403125 51.88484375 -49.3203125 47.46484375 C-46.65104167 49.22265625 -43.98177083 50.98046875 -41.3125 52.73828125 C-34.78366429 56.50557288 -28.73359126 57.22264558 -21.3203125 56.46484375 C-17.7639132 55.15280642 -17.7639132 55.15280642 -15.3203125 53.46484375 C-15.1346875 51.60859375 -15.1346875 51.60859375 -14.9453125 49.71484375 C-14.87570312 49.01875 -14.80609375 48.32265625 -14.734375 47.60546875 C-15.49282704 44.83459064 -16.89820994 43.84047506 -19.31445312 42.38916016 C-24.31693545 40.08397539 -29.83892285 39.09525697 -35.17773438 37.84179688 C-42.1966035 36.08108261 -47.51078095 34.0832734 -52.09765625 28.17578125 C-55.55506445 21.21440042 -56.889871 14.81057535 -54.65625 7.203125 C-51.50308151 0.00567519 -45.47024758 -4.58192219 -38.3203125 -7.53515625 C-24.22024867 -11.03552175 -11.8266904 -7.93356278 0 0 Z " fill="#F9FBFA" transform="translate(772.3203125,754.53515625)"/>
<path d="M0 0 C6.30653698 4.53144528 10.05468243 8.83544834 12.3125 16.3125 C10.40368566 17.34794174 8.48510796 18.36540085 6.5625 19.375 C5.49515625 19.94347656 4.4278125 20.51195312 3.328125 21.09765625 C0.3125 22.3125 0.3125 22.3125 -1.96875 22.14453125 C-3.6875 21.3125 -3.6875 21.3125 -5.4375 18.9375 C-8.42827986 15.44825684 -11.21466751 14.20391106 -15.6875 13.3125 C-20.27929218 13.11826175 -23.81803057 13.918778 -28 15.8125 C-33.61418813 21.03500058 -34.87204008 26.43300961 -35.16015625 33.92089844 C-35.26350008 42.95979243 -34.6738245 50.01146567 -28.3125 56.875 C-22.51068213 59.17572088 -16.83442499 59.16462112 -10.6875 58.3125 C-6.52666727 56.41917144 -4.5900252 53.35968998 -2.6875 49.3125 C2.54522633 50.95208758 7.46446636 52.70202035 12.3125 55.3125 C10.10642034 63.03377883 6.07531308 68.9667212 -0.6875 73.3125 C-10.6689632 78.0544268 -21.10506674 79.15467233 -31.625 75.5625 C-40.0646462 72.04496294 -47.04794538 66.98913253 -50.984375 58.5234375 C-55.89980755 45.30876013 -57.29181026 29.09867643 -51.94921875 15.7890625 C-47.28412504 6.63219125 -40.43062489 -0.25936347 -30.6875 -3.6875 C-20.42914737 -6.14132521 -9.05088998 -5.65680624 0 0 Z " fill="#F9FBFA" transform="translate(304.6875,750.6875)"/>
<path d="M0 0 C6.27 0 12.54 0 19 0 C19 6.93 19 13.86 19 21 C25.27 21 31.54 21 38 21 C38 26.28 38 31.56 38 37 C32.06 37 26.12 37 20 37 C20.04412923 42.90875208 20.11393803 48.81643318 20.20751953 54.72460938 C20.23573807 56.73428827 20.25694821 58.74407834 20.27099609 60.75390625 C20.29241335 63.64380849 20.33905703 66.5323729 20.390625 69.421875 C20.39185364 70.31992859 20.39308228 71.21798218 20.39434814 72.14324951 C20.49191676 77.19986471 20.49191676 77.19986471 22.84960938 81.57421875 C25.77090546 83.51113623 27.77925261 83.40090206 31.25 83.25 C32.32765625 83.21390625 33.4053125 83.1778125 34.515625 83.140625 C35.33546875 83.09421875 36.1553125 83.0478125 37 83 C37.50636607 84.74816858 38.00484619 86.49862263 38.5 88.25 C38.7784375 89.22453125 39.056875 90.1990625 39.34375 91.203125 C40 94 40 94 40 98 C34.64864439 100.19317853 29.81542996 100.36654468 24.125 100.375 C23.26519531 100.39949219 22.40539062 100.42398438 21.51953125 100.44921875 C15.51918562 100.47653444 11.00013398 99.40697237 6 96 C2.02259813 91.8186288 0.87242867 88.66639064 0.88647461 82.9777832 C0.88655014 81.95695145 0.88662567 80.93611969 0.88670349 79.88435364 C0.89186478 78.78427475 0.89702606 77.68419586 0.90234375 76.55078125 C0.9037587 75.4230278 0.90517365 74.29527435 0.90663147 73.13334656 C0.9122353 69.52637088 0.92478847 65.91945696 0.9375 62.3125 C0.94251451 59.86914152 0.9470775 57.42578207 0.95117188 54.98242188 C0.96220597 48.98825741 0.97947321 42.99413918 1 37 C-2.63 37 -6.26 37 -10 37 C-10 31.72 -10 26.44 -10 21 C-6.7 21 -3.4 21 0 21 C0 14.07 0 7.14 0 0 Z " fill="#F9FBFA" transform="translate(500,727)"/>
<path d="M0 0 C3.3 0 6.6 0 10 0 C11.64855396 3.29710793 11.62837778 6.99587675 12 10.625 C12.16612357 12.20057819 12.33278669 13.77609959 12.5 15.3515625 C12.58121094 16.12145508 12.66242188 16.89134766 12.74609375 17.68457031 C13.12374518 21.12846082 13.55963819 24.56360514 14 28 C15.31654405 20.19020955 16.27345508 12.49631616 16.65625 4.58203125 C17 2 17 2 19 0 C21.3828125 -0.1953125 21.3828125 -0.1953125 24.125 -0.125 C25.03507813 -0.10695313 25.94515625 -0.08890625 26.8828125 -0.0703125 C27.58148437 -0.04710937 28.28015625 -0.02390625 29 0 C29.63421875 1.72863281 29.63421875 1.72863281 30.28125 3.4921875 C31.88486468 7.76661114 33.65740953 11.94899803 35.5 16.125 C35.94279297 17.14013672 35.94279297 17.14013672 36.39453125 18.17578125 C37.74687899 21.25579792 39.13703047 24.26577538 40.6796875 27.2578125 C42.47156615 30.97940662 42.96151195 34.01962331 42 38 C36.69571076 48.52357384 25.93571964 58.53410402 15 63 C9.10019737 62.63878759 4.43014111 57.65197719 0 54 C-0.82886719 53.38125 -1.65773438 52.7625 -2.51171875 52.125 C-5.26371501 49.77478656 -7.16496516 47.327473 -9.25 44.375 C-9.93578125 43.41335938 -10.6215625 42.45171875 -11.328125 41.4609375 C-13.97332035 37.56730883 -14.70902003 34.66421905 -14 30 C-12.67845834 26.22742534 -10.980728 22.66251146 -9.25 19.0625 C-8.8065625 18.11181641 -8.363125 17.16113281 -7.90625 16.18164062 C-5.35775135 10.74359425 -2.70844174 5.35993026 0 0 Z " fill="#F8FAFA" transform="translate(498,337)"/>
<path d="M0 0 C4.77834904 1.62122557 7.3156975 3.74214086 10 8 C14.17624836 16.56758248 14.214631 26.32312867 11.8125 35.4375 C10.10581938 40.38848386 7.74457768 44.23519396 3.23828125 47.1328125 C-1.57722593 48.99850638 -6.93837331 48.50427165 -12 48 C-17.9718751 45.2759868 -20.76949288 40.95321708 -23.25 35 C-25.59219081 25.37572504 -24.87149167 14.68848362 -20 6 C-14.25643081 -0.57873104 -8.25957299 -0.59460277 0 0 Z " fill="#0F5AA2" transform="translate(368,763)"/>
<path d="M0 0 C1.20336754 -0.00810448 1.20336754 -0.00810448 2.43104553 -0.01637268 C5.07485187 -0.0288489 7.71756685 -0.01237686 10.36132812 0.00561523 C12.20308489 0.00546022 14.04484198 0.00397084 15.88659668 0.00120544 C19.74339244 -0.00017805 23.5998161 0.01237119 27.45654297 0.03515625 C32.39635729 0.06354073 37.33555345 0.0608029 42.27541351 0.04806614 C46.07758855 0.04110596 49.87962111 0.04890213 53.68177795 0.06132317 C55.50301059 0.06583437 57.32425854 0.06617736 59.14549255 0.06225777 C61.69236522 0.05934221 64.23839073 0.07586853 66.78515625 0.09765625 C67.53543594 0.0931546 68.28571564 0.08865295 69.05873108 0.08401489 C73.48250493 0.14678632 76.40314004 0.71210432 79.89257812 3.50170898 C80.48632812 5.87670898 80.48632812 5.87670898 80.39257812 8.50170898 C80.38226562 9.36795898 80.37195313 10.23420898 80.36132812 11.12670898 C79.77757769 14.08437787 79.37089192 14.77962872 76.89257812 16.50170898 C74.09530014 16.80305029 71.51966495 16.92176851 68.72094727 16.90576172 C67.88812729 16.91262497 67.05530731 16.91948822 66.19725037 16.92655945 C63.44057226 16.94488088 60.68446039 16.94098232 57.92773438 16.93530273 C56.01346145 16.9398621 54.09919016 16.94516693 52.18492126 16.95118713 C48.17082067 16.96012882 44.15691891 16.95768323 40.14282227 16.94775391 C34.99651937 16.93626503 29.8509027 16.95646907 24.70468998 16.98567104 C20.7507236 17.00401019 16.79692234 17.00374511 12.84292412 16.99803352 C10.94549027 16.99788002 9.04804543 17.00394852 7.15065193 17.016325 C4.49786368 17.03118956 1.8463516 17.02059174 -0.80639648 17.00341797 C-1.59146576 17.01308594 -2.37653503 17.02275391 -3.18539429 17.03271484 C-6.75114958 16.98433312 -8.72158357 16.79789221 -11.59083557 14.59535217 C-13.22429593 12.34036468 -13.67530232 11.25649577 -13.66992188 8.50170898 C-13.69183594 7.84170898 -13.71375 7.18170898 -13.73632812 6.50170898 C-11.74929077 0.18268335 -5.66028882 -0.07293746 0 0 Z " fill="#FAFCFB" transform="translate(478.107421875,314.498291015625)"/>
<path d="M0 0 C5.6925 -0.12375 5.6925 -0.12375 11.5 -0.25 C12.68013672 -0.28641602 13.86027344 -0.32283203 15.07617188 -0.36035156 C21.58411533 -0.42846306 26.62706178 0.12048211 32 4 C35.36065034 7.52868285 36.25917122 10.24932124 36.4375 15 C36.18024872 20.7109785 34.76194291 24.32841313 30.5625 28.3125 C26.50728117 30.98300996 23.15830986 31.1231825 18.359375 31.09765625 C17.39483398 31.09515869 16.43029297 31.09266113 15.43652344 31.09008789 C13.61169434 31.07643188 13.61169434 31.07643188 11.75 31.0625 C7.8725 31.041875 3.995 31.02125 0 31 C0 20.77 0 10.54 0 0 Z " fill="#0D58A1" transform="translate(571,778)"/>
<path d="M0 0 C5.61 0 11.22 0 17 0 C15.87301587 7.88888889 15.87301587 7.88888889 14.3984375 10.68359375 C13.91564331 11.60446777 13.91564331 11.60446777 13.4230957 12.54394531 C13.07722412 13.16881836 12.73135254 13.79369141 12.375 14.4375 C11.83975708 15.41928223 11.83975708 15.41928223 11.29370117 16.42089844 C7.46318058 23.25220559 3.21875692 29.4990578 -4 33 C-7.375 33.43359375 -7.375 33.43359375 -11 33.4375 C-12.794375 33.46650391 -12.794375 33.46650391 -14.625 33.49609375 C-18.64322773 32.90545148 -20.1791478 31.88003092 -23 29 C-24.546875 26.59765625 -24.546875 26.59765625 -25.75 24.0625 C-26.36101562 22.81146484 -26.36101562 22.81146484 -26.984375 21.53515625 C-27.9913253 19.02165338 -28.56118154 16.66629912 -29 14 C-28.319375 14.33 -27.63875 14.66 -26.9375 15 C-20.70020724 17.12333371 -15.84184645 16.04946325 -10.078125 13.265625 C-4.81466132 10.06005689 -2.74383214 5.48766427 0 0 Z " fill="#F9FAFA" transform="translate(473,337)"/>
<path d="M0 0 C1.39456452 0.00667256 2.78911118 0.01863093 4.18359375 0.03515625 C4.89451172 0.03966797 5.60542969 0.04417969 6.33789062 0.04882812 C8.09899388 0.06064761 9.86005411 0.07858362 11.62109375 0.09765625 C11.92402344 0.773125 12.22695313 1.44859375 12.5390625 2.14453125 C15.38832194 8.21126213 17.65364151 12.16604203 23.8515625 15.18359375 C27.17999606 16.28211766 29.93630209 16.29330861 33.43359375 16.22265625 C34.59503906 16.20460938 35.75648438 16.1865625 36.953125 16.16796875 C38.27376953 16.13316406 38.27376953 16.13316406 39.62109375 16.09765625 C38.62753242 22.71360579 35.23364765 28.09267302 29.93359375 32.16015625 C23.71389916 33.92044717 17.33409797 34.19984137 11.30859375 31.59765625 C3.58041275 27.07115023 -0.50377695 18.26117598 -3.37890625 10.09765625 C-4.03642154 7.00053249 -4.27616629 4.28259504 -4.37890625 1.09765625 C-3.37890625 0.09765625 -3.37890625 0.09765625 0 0 Z " fill="#F8FAFA" transform="translate(539.37890625,336.90234375)"/>
<path d="M0 0 C3.485625 -0.061875 6.97125 -0.12375 10.5625 -0.1875 C12.18973999 -0.22846802 12.18973999 -0.22846802 13.84985352 -0.27026367 C19.70235337 -0.32033105 23.85808178 0.13186013 29 3 C32.29216983 6.61076691 32.45677927 10.15566089 32.29296875 14.8515625 C31.70737978 19.14588163 29.26504012 22.27913324 26 25 C22.94080612 26.01973129 20.87581975 26.11533602 17.67578125 26.09765625 C16.74934814 26.09515869 15.82291504 26.09266113 14.8684082 26.09008789 C13.6949585 26.08098389 12.52150879 26.07187988 11.3125 26.0625 C7.579375 26.041875 3.84625 26.02125 0 26 C0 17.42 0 8.84 0 0 Z " fill="#0D57A0" transform="translate(571,736)"/>
<path d="M0 0 C28.71 0 57.42 0 87 0 C87 0.33 87 0.66 87 1 C86.15405273 1.03758423 86.15405273 1.03758423 85.29101562 1.07592773 C82.69385118 1.19318301 80.0969369 1.31531266 77.5 1.4375 C76.613125 1.47681641 75.72625 1.51613281 74.8125 1.55664062 C69.49384873 1.81084087 64.2743744 2.26676337 59 3 C59 3.99 59 4.98 59 6 C58.28972656 6.06058594 57.57945312 6.12117188 56.84765625 6.18359375 C55.92855469 6.26738281 55.00945313 6.35117187 54.0625 6.4375 C53.14597656 6.51871094 52.22945312 6.59992188 51.28515625 6.68359375 C49.03840268 6.76044976 49.03840268 6.76044976 48 8 C47.69971594 10.21395878 47.46011459 12.43620052 47.24609375 14.66015625 C47.18092056 15.32462265 47.11574738 15.98908905 47.04859924 16.6736908 C46.84072803 18.80291295 46.63905126 20.9326712 46.4375 23.0625 C46.29793262 24.50329465 46.1579639 25.94405049 46.01757812 27.38476562 C45.67372157 30.92273794 45.33541923 34.46121669 45 38 C40.07467433 28.63276256 40.54712241 16.4097238 40 6 C36.7 6.33 33.4 6.66 30 7 C28.58306653 10.1457134 27.1664467 13.29156743 25.75 16.4375 C25.35425781 17.31599609 24.95851563 18.19449219 24.55078125 19.09960938 C23.75619486 20.86463325 22.96330811 22.63042325 22.17211914 24.39697266 C21.39887348 26.11418683 20.61697636 27.82753496 19.82592773 29.53662109 C19.46442627 30.32504395 19.1029248 31.1134668 18.73046875 31.92578125 C18.40715576 32.62227783 18.08384277 33.31877441 17.75073242 34.03637695 C16.55538646 37.16293552 16.55761414 39.71370502 17 43 C17.9601817 44.68991979 18.95355934 46.36209288 20 48 C19.67 48.99 19.34 49.98 19 51 C14 42.24567474 14 42.24567474 14 37.8125 C15.18923443 34.46777816 16.58678319 31.25654307 18 28 C18 27.01 18 26.02 18 25 C17.34 24.67 16.68 24.34 16 24 C15.67 24.99 15.34 25.98 15 27 C14.67 26.34 14.34 25.68 14 25 C15.05882529 22.66644371 16.16426594 20.44029715 17.375 18.1875 C19.57143089 14.0820618 21.0693234 10.653383 22 6 C13.585 6.495 13.585 6.495 5 7 C4.34 8.32 3.68 9.64 3 11 C2.67 10.34 2.34 9.68 2 9 C2.92578125 6.39453125 2.92578125 6.39453125 5 4 C7.94093052 3.62140441 10.27644958 3.52224386 13.1875 3.6875 C13.93708984 3.71005859 14.68667969 3.73261719 15.45898438 3.75585938 C17.3068447 3.81470843 19.15367667 3.90439062 21 4 C21 3.34 21 2.68 21 2 C14.07 1.67 7.14 1.34 0 1 C0 0.67 0 0.34 0 0 Z " fill="#0D539E" transform="translate(468,331)"/>
<path d="M0 0 C0.58067162 14.49528409 0.58067162 14.49528409 -3 19 C-7.68722436 22.56229051 -11.04960112 23.43961632 -16.88671875 23.3359375 C-19.30413108 22.95165384 -20.92749143 22.30022643 -23 21 C-25.97581698 16.53627453 -25.60577244 12.23167109 -25 7 C-22.72392503 3.04160874 -18.88413417 1.83191122 -14.66015625 0.52734375 C-9.80009786 -0.43610395 -4.92898607 -0.2251821 0 0 Z " fill="#115AA1" transform="translate(683,790)"/>
<path d="M0 0 C6.04399073 5.20064318 6.62177469 6.78669753 7.6875 15.3125 C-2.8725 15.3125 -13.4325 15.3125 -24.3125 15.3125 C-23.31604454 7.34085629 -22.86841808 5.21637879 -17.3125 0.3125 C-12.0185573 -2.97832925 -5.41637935 -2.75928759 0 0 Z " fill="#0E5AA2" transform="translate(829.3125,762.6875)"/>
<path d="M0 0 C0.66 0 1.32 0 2 0 C2.33 0.928125 2.66 1.85625 3 2.8125 C5.75750679 7.20727645 8.10922593 7.55682077 13 9 C12.360625 9.804375 11.72125 10.60875 11.0625 11.4375 C8.40147674 15.35851307 8.20593653 19.36642801 8 24 C7.29875 23.649375 6.5975 23.29875 5.875 22.9375 C1.33339727 21.45654259 -2.50515684 22.86903946 -7 24 C-6.95359375 23.41992188 -6.9071875 22.83984375 -6.859375 22.2421875 C-6.58987432 16.40942269 -7.28782564 13.5242125 -11 9 C-8.09399739 7.74335022 -6.20395416 7 -3 7 C-2.690625 6.21625 -2.38125 5.4325 -2.0625 4.625 C-1 2 -1 2 0 0 Z " fill="#1058A1" transform="translate(600,254)"/>
<path d="M0 0 C0.66 0 1.32 0 2 0 C2.33 0.928125 2.66 1.85625 3 2.8125 C5.75750679 7.20727645 8.10922593 7.55682077 13 9 C12.360625 9.804375 11.72125 10.60875 11.0625 11.4375 C8.40147674 15.35851307 8.20593653 19.36642801 8 24 C7.360625 23.649375 6.72125 23.29875 6.0625 22.9375 C1.8569733 21.65009387 -1.71464763 22.3091153 -6 23 C-6.0825 21.783125 -6.165 20.56625 -6.25 19.3125 C-6.73945125 15.18503799 -8.18197452 13.09073762 -11 10 C-11 9.34 -11 8.68 -11 8 C-9.1128125 7.690625 -9.1128125 7.690625 -7.1875 7.375 C-3.51890422 6.49193978 -3.17283915 6.27006117 -1 2.875 C-0.67 1.92625 -0.34 0.9775 0 0 Z " fill="#0F58A0" transform="translate(422,254)"/>
<path d="M0 0 C1.29953114 3.89859342 0.39863623 5.66375403 -0.8125 9.5625 C-2.54661164 15.34087199 -3.95979523 21.05988331 -5 27 C-5.33 27 -5.66 27 -6 27 C-6.33 25.35 -6.66 23.7 -7 22 C-7.66 22 -8.32 22 -9 22 C-9.33693273 15.03672362 -8.3030887 9.56654456 -6 3 C-4.68 3.33 -3.36 3.66 -2 4 C-1.34 2.68 -0.68 1.36 0 0 Z " fill="#094E9B" transform="translate(538,282)"/>
<path d="M0 0 C0.33 0 0.66 0 1 0 C2.72221049 12.73205613 3.24130116 25.15741598 3 38 C2.34 38 1.68 38 1 38 C-1.3700523 33.34420556 -1.26868664 29.15543934 -1.1875 24.0625 C-1.18105469 23.22871826 -1.17460937 22.39493652 -1.16796875 21.53588867 C-1.07972722 14.33110596 -0.65557794 7.17623713 0 0 Z " fill="#16529C" transform="translate(511,208)"/>
<path d="M0 0 C5.36274681 4.40020251 5.0388915 5.31113196 6 13 C-4.56 13 -15.12 13 -26 13 C-25.67 10.36 -25.34 7.72 -25 5 C-24.34 5 -23.68 5 -23 5 C-23.33 6.98 -23.66 8.96 -24 11 C-14.76 11 -5.52 11 4 11 C3.01 8.36 2.02 5.72 1 3 C0.67 2.01 0.34 1.02 0 0 Z " fill="#0A4A97" transform="translate(831,765)"/>
<path d="M0 0 C0 0.66 0 1.32 0 2 C-0.55429687 2.15855469 -1.10859375 2.31710937 -1.6796875 2.48046875 C-6.47984297 3.90376787 -6.47984297 3.90376787 -9.5 7.6875 C-9.665 8.450625 -9.83 9.21375 -10 10 C-7.36 11.32 -4.72 12.64 -2 14 C-6 15 -6 15 -9.1875 13.375 C-12 11 -12 11 -13.1875 8.5625 C-13 6 -13 6 -10.6875 3.25 C-6.8211438 0.01305062 -4.97884484 -0.10823576 0 0 Z " fill="#0D4E9A" transform="translate(748,761)"/>
<path d="M0 0 C0.33 0 0.66 0 1 0 C1.09928082 7.75493514 1.06059488 15.31068715 0 23 C-3.67742278 16.21321162 -3.13879295 8.52566206 -3 1 C-2.67 1 -2.34 1 -2 1 C-1.67 2.98 -1.34 4.96 -1 7 C-0.67 4.69 -0.34 2.38 0 0 Z " fill="#074293" transform="translate(513,346)"/>
<path d="M0 0 C0.33 0 0.66 0 1 0 C1.33 3.3 1.66 6.6 2 10 C2.66 8.68 3.32 7.36 4 6 C4 9.96 4 13.92 4 18 C3.34 18 2.68 18 2 18 C0.04968308 13.92276266 -0.21581971 10.68307578 -0.125 6.1875 C-0.10695313 5.02605469 -0.08890625 3.86460937 -0.0703125 2.66796875 C-0.04710937 1.78753906 -0.02390625 0.90710938 0 0 Z " fill="#064796" transform="translate(510,228)"/>
<path d="M0 0 C0.66 0 1.32 0 2 0 C3.125 7.75 3.125 7.75 2 10 C1.34 10 0.68 10 0 10 C0 11.98 0 13.96 0 16 C-0.33 16 -0.66 16 -1 16 C-1.02685095 13.52076199 -1.04676547 11.0418116 -1.0625 8.5625 C-1.07506836 7.50192383 -1.07506836 7.50192383 -1.08789062 6.41992188 C-1.09653588 4.61306441 -1.05220011 2.80612397 -1 1 C-0.67 0.67 -0.34 0.34 0 0 Z " fill="#1763A7" transform="translate(490,293)"/>
<path d="M0 0 C0.99 0.33 1.98 0.66 3 1 C0.03 3.97 -2.94 6.94 -6 10 C-6.33 9.01 -6.66 8.02 -7 7 C-2.88888889 1.44444444 -2.88888889 1.44444444 0 0 Z " fill="#0C4C99" transform="translate(354,764)"/>
<path d="M0 0 C6.27 0 12.54 0 19 0 C19 0.33 19 0.66 19 1 C17.31970703 1.03867187 17.31970703 1.03867187 15.60546875 1.078125 C14.13277354 1.13440635 12.6601188 1.19175368 11.1875 1.25 C10.08051758 1.27126953 10.08051758 1.27126953 8.95117188 1.29296875 C4.47562582 1.46509047 4.47562582 1.46509047 0.98828125 4.046875 C0.66214844 4.69140625 0.33601563 5.3359375 0 6 C0 4.02 0 2.04 0 0 Z " fill="#F0F5F8" transform="translate(460,748)"/>
<path d="M0 0 C0.99 0.33 1.98 0.66 3 1 C3.33 2.65 3.66 4.3 4 6 C3.01 6 2.02 6 1 6 C0.67 6.99 0.34 7.98 0 9 C-1.3950848 6.70221327 -2.07438619 5.5207033 -1.6875 2.8125 C-1 1 -1 1 0 0 Z " fill="#155FA4" transform="translate(533,342)"/>
<path d="M0 0 C0.40863281 0.46019531 0.81726563 0.92039062 1.23828125 1.39453125 C3.17463654 3.15914771 4.72488998 3.83971622 7.1875 4.6875 C7.90292969 4.93886719 8.61835938 5.19023437 9.35546875 5.44921875 C9.89816406 5.63097656 10.44085938 5.81273437 11 6 C9.68 7.32 8.36 8.64 7 10 C6.67 9.01 6.34 8.02 6 7 C5.175 6.525625 4.35 6.05125 3.5 5.5625 C1 4 1 4 0.1875 1.8125 C0.125625 1.214375 0.06375 0.61625 0 0 Z " fill="#0A4797" transform="translate(424,257)"/>
<path d="M0 0 C1.65 0.33 3.3 0.66 5 1 C5.33 2.32 5.66 3.64 6 5 C4.68 5 3.36 5 2 5 C1.67 5.99 1.34 6.98 1 8 C0.34 8 -0.32 8 -1 8 C-0.67 5.36 -0.34 2.72 0 0 Z " fill="#185CA1" transform="translate(530,290)"/>
<path d="M0 0 C-1.485 1.485 -1.485 1.485 -3 3 C-2.2265625 3.8971875 -2.2265625 3.8971875 -1.4375 4.8125 C-0.963125 5.534375 -0.48875 6.25625 0 7 C-0.33 7.99 -0.66 8.98 -1 10 C-2.98 7.03 -4.96 4.06 -7 1 C-4.53721199 -0.231394 -2.7204945 -0.07159196 0 0 Z " fill="#0B4898" transform="translate(596,262)"/>
<path d="M0 0 C0.99 0.33 1.98 0.66 3 1 C2.67 1.66 2.34 2.32 2 3 C2.99 3.33 3.98 3.66 5 4 C3 5 3 5 -0.125 4.0625 C-1.07375 3.711875 -2.0225 3.36125 -3 3 C-2.01 2.01 -1.02 1.02 0 0 Z " fill="#0E4795" transform="translate(611,766)"/>
</svg>
